HIERARCHY
ROOT Hips
{
	OFFSET 0.000000 0.000000 0.000000
	CHANNELS 6 Xposition Yposition Zposition Zrotation Yrotation Xrotation 
	JOINT LHipJoint
	{
		OFFSET 0.000000 0.000000 0.000000
		CHANNELS 3 Zrotation Yrotation Xrotation
		JOINT LeftUpLeg
		{
			OFFSET 1.363060 -1.794630 0.839290
			CHANNELS 3 Zrotation Yrotation Xrotation
			JOINT LeftLeg
			{
				OFFSET 2.448110 -6.726130 0.000000
				CHANNELS 3 Zrotation Yrotation Xrotation
				JOINT LeftFoot
				{
					OFFSET 2.562200 -7.039590 0.000000
					CHANNELS 3 Zrotation Yrotation Xrotation
					JOINT LeftToeBase
					{
						OFFSET 0.157640 -0.433110 2.322550
						CHANNELS 3 Zrotation Yrotation Xrotation
						End Site
						{
							OFFSET 0.000000 0.000000 0.000000
						}
					}
				}
			}
		}
	}
	JOINT RHipJoint
	{
		OFFSET 0.000000 0.000000 0.000000
		CHANNELS 3 Zrotation Yrotation Xrotation
		JOINT RightUpLeg
		{
			OFFSET -1.305520 -1.794630 0.839290
			CHANNELS 3 Zrotation Yrotation Xrotation
			JOINT RightLeg
			{
				OFFSET -2.542530 -6.985550 0.000000
				CHANNELS 3 Zrotation Yrotation Xrotation
				JOINT RightFoot
				{
					OFFSET -2.568260 -7.056230 0.000000
					CHANNELS 3 Zrotation Yrotation Xrotation
					JOINT RightToeBase
					{
						OFFSET -0.164730 -0.452590 2.363150
						CHANNELS 3 Zrotation Yrotation Xrotation
						End Site
						{
							OFFSET 0.000000 0.000000 0.000000
						}
					}
				}
			}
		}
	}
	JOINT LowerBack
	{
		OFFSET 0.000000 0.000000 0.000000
		CHANNELS 3 Zrotation Yrotation Xrotation
		JOINT Spine
		{
			OFFSET 0.028270 2.035590 -0.193380
			CHANNELS 3 Zrotation Yrotation Xrotation
			JOINT Spine1
			{
				OFFSET 0.056720 2.048850 -0.042750
				CHANNELS 3 Zrotation Yrotation Xrotation
				JOINT Neck
				{
					OFFSET 0.000000 0.000000 0.000000
					CHANNELS 3 Zrotation Yrotation Xrotation
					JOINT Neck1
					{
						OFFSET -0.054170 1.746240 0.172020
						CHANNELS 3 Zrotation Yrotation Xrotation
						JOINT Head
						{
							OFFSET 0.104070 1.761360 -0.123970
							CHANNELS 3 Zrotation Yrotation Xrotation
							End Site
							{
								OFFSET 0.000000 0.000000 0.000000
							}
						}
					}
				}
				JOINT LeftShoulder
				{
					OFFSET 0.000000 0.000000 0.000000
					CHANNELS 3 Zrotation Yrotation Xrotation
					JOINT LeftArm
					{
						OFFSET 3.362410 1.200890 -0.311210
						CHANNELS 3 Zrotation Yrotation Xrotation
						JOINT LeftForeArm
						{
							OFFSET 4.983000 -0.000000 -0.000000
							CHANNELS 3 Zrotation Yrotation Xrotation
							JOINT LeftHand
							{
								OFFSET 3.483560 -0.000000 -0.000000
								CHANNELS 3 Zrotation Yrotation Xrotation
								JOINT LeftFingerBase
								{
									OFFSET 0.000000 0.000000 0.000000
									CHANNELS 3 Zrotation Yrotation Xrotation
									JOINT LeftHandIndex1
									{
										OFFSET 0.715260 -0.000000 -0.000000
										CHANNELS 3 Zrotation Yrotation Xrotation
										End Site
										{
											OFFSET 0.000000 0.000000 0.000000
										}
									}
								}
								JOINT LThumb
								{
									OFFSET 0.000000 0.000000 0.000000
									CHANNELS 3 Zrotation Yrotation Xrotation
									End Site
									{
										OFFSET 0.000000 0.000000 0.000000
									}
								}
							}
						}
					}
				}
				JOINT RightShoulder
				{
					OFFSET 0.000000 0.000000 0.000000
					CHANNELS 3 Zrotation Yrotation Xrotation
					JOINT RightArm
					{
						OFFSET -3.136600 1.374050 -0.404650
						CHANNELS 3 Zrotation Yrotation Xrotation
						JOINT RightForeArm
						{
							OFFSET -5.241900 -0.000000 -0.000000
							CHANNELS 3 Zrotation Yrotation Xrotation
							JOINT RightHand
							{
								OFFSET -3.444170 -0.000000 -0.000000
								CHANNELS 3 Zrotation Yrotation Xrotation
								JOINT RightFingerBase
								{
									OFFSET 0.000000 0.000000 0.000000
									CHANNELS 3 Zrotation Yrotation Xrotation
									JOINT RightHandIndex1
									{
										OFFSET -0.622530 -0.000000 -0.000000
										CHANNELS 3 Zrotation Yrotation Xrotation
										End Site
										{
											OFFSET 0.000000 0.000000 0.000000
										}
									}
								}
								JOINT RThumb
								{
									OFFSET 0.000000 0.000000 0.000000
									CHANNELS 3 Zrotation Yrotation Xrotation
									End Site
									{
										OFFSET 0.000000 0.000000 0.000000
									}
								}
							}
						}
					}
				}
			}
		}
	}
}
MOTION
Frames: 7
Frame Time: 0.008333
4.011264 16.800971 1.409473 -178.579639 -80.219583 -170.468367 -10.905571 0.183506 2.551321 -5.645362 -1.788040 -41.895554 0.133090 2.676240 57.773775 3.300492 17.521671 -15.747322 177.773800 0.000000 -0.345400 7.541160 -2.087155 2.496277 18.109164 4.876658 -12.562318 2.854655 -0.170521 23.346474 -3.304822 -7.130333 -26.725983 -176.906099 0.000000 -7.295700 -0.243655 0.502678 -6.445301 -0.872662 0.302262 -4.749033 -5.788721 0.154089 -2.078750 7.516633 -0.655701 -5.896349 -3.581519 -0.297826 0.479986 0.000000 0.000000 0.000000 -4.874984 4.862088 3.992045 -64.308516 7.440210 -17.714833 -3.122741 -3.410972 -0.033811 19.531203 6.286468 1.064128 0.011311 0.104497 0.000000 0.000000 0.000000 0.000000 0.000000 0.000000 0.000000 11.925956 6.547844 -0.085056 77.810443 31.930236 36.246975 1.306645 43.973977 -0.009257 -4.005769 9.331416 -0.343673 0.070600 -0.335617 -0.000000 0.000000 0.000000 0.000000 0.000000 0.000000 0.000000 
3.789196 16.892457 1.331100 175.782143 -80.217218 -164.884863 -10.619700 0.044436 2.678067 -6.692798 -2.286968 -41.428993 -0.136936 2.269781 52.989856 3.248990 16.938169 -14.823573 -1.863200 0.000001 -0.825999 7.728911 -2.191160 2.512528 16.907851 4.580038 -10.053998 2.799440 0.133194 19.584659 -3.119188 -7.101911 -24.915932 -177.274100 -0.000000 -6.463900 -1.805833 0.600453 -6.639766 -1.159411 0.549712 -4.817486 -5.658607 0.395580 -2.188585 7.235198 -0.745161 -5.855351 -3.393373 -0.285975 0.496986 0.000000 0.000000 0.000000 -5.116857 5.092246 4.079962 -63.040853 10.992789 -16.914002 -3.507257 -4.306538 -0.036301 17.927275 9.444762 1.476104 -0.013486 0.111052 0.000000 0.000000 0.000000 0.000000 0.000000 0.000000 0.000000 10.873823 6.780621 -0.193554 77.801629 34.152726 38.465421 1.245299 46.739254 -0.009502 -3.797462 8.952957 -0.313726 0.071213 -0.353243 0.000000 0.000000 0.000000 0.000000 0.000000 0.000000 0.000000 
3.566757 16.978010 1.254088 170.795609 -80.189318 -160.011592 -10.275739 -0.044980 2.770607 -7.754118 -2.658116 -40.701741 -0.406163 1.846577 47.925996 3.139319 16.147069 -13.604137 -1.412900 -0.000000 -2.637801 8.039441 -2.312027 2.506572 15.723027 4.119757 -7.567539 2.714477 0.395622 15.923139 -2.900389 -7.000211 -22.958092 -177.679800 0.000000 -5.626700 -3.263511 0.681957 -6.756523 -1.423536 0.773950 -4.863839 -5.529772 0.616835 -2.270437 6.949077 -0.805432 -5.827495 -3.198801 -0.272956 0.507660 0.000000 0.000000 0.000000 -5.302105 5.460403 4.136578 -61.609568 14.085664 -15.873604 -3.903046 -4.730876 -0.039494 15.979142 11.806795 1.650161 -0.040720 0.113970 0.000000 0.000000 0.000000 0.000000 0.000000 0.000000 0.000000 9.797570 6.982372 -0.285876 77.531249 36.447573 40.341311 1.199794 49.516994 -0.008911 -3.415781 8.557891 -0.270809 0.068867 -0.368642 -0.000000 0.000000 0.000000 0.000000 0.000000 0.000000 0.000000 
3.344011 17.055827 1.180674 166.688735 -80.083246 -156.072964 -9.902285 -0.069604 2.842031 -8.780965 -2.872424 -39.761710 -0.686891 1.426665 42.647486 2.978601 15.223753 -12.130379 -0.912601 -0.000000 -4.959700 8.435491 -2.442509 2.465934 14.590154 3.479624 -5.137922 2.609319 0.612953 12.469384 -2.646483 -6.756398 -20.900934 -178.111400 0.000000 -4.715300 -4.572359 0.780444 -6.799618 -1.659071 1.002374 -4.892243 -5.393796 0.845355 -2.332221 6.633827 -0.811463 -5.802609 -2.998630 -0.259049 0.515536 0.000000 0.000000 0.000000 -5.453559 5.936498 4.155752 -60.015125 16.706924 -14.390238 -4.304848 -4.599360 -0.042449 13.728001 13.354046 1.608003 -0.069151 0.112250 0.000000 0.000000 0.000000 0.000000 0.000000 0.000000 0.000000 8.665397 7.189727 -0.354301 76.951817 38.803922 41.837635 1.163839 52.306892 -0.007562 -2.902040 8.190143 -0.221018 0.063532 -0.382309 -0.000000 0.000000 0.000000 0.000000 0.000000 0.000000 0.000000 
3.121031 17.124336 1.113066 163.607076 -79.873861 -153.204593 -9.541442 -0.038982 2.905491 -9.720470 -2.916236 -38.675548 -0.988453 1.019610 37.242994 2.778555 14.248109 -10.478170 -0.403500 -0.000000 -7.592100 8.858819 -2.582521 2.381235 13.537794 2.658195 -2.802071 2.502056 0.783859 9.305451 -2.356773 -6.312898 -18.787447 -178.550100 0.000000 -3.627100 -5.706450 0.915591 -6.781360 -1.860686 1.250596 -4.904948 -5.239178 1.096327 -2.368628 6.269383 -0.756399 -5.791591 -2.792411 -0.244150 0.518457 0.000000 0.000000 0.000000 -5.596327 6.564589 4.133307 -58.309785 18.895217 -12.613513 -4.688905 -4.114801 -0.044226 11.323146 14.074742 1.402340 -0.096591 0.105309 -0.000000 0.000000 0.000000 0.000000 0.000000 0.000000 0.000000 7.448928 7.419100 -0.399259 76.020071 41.226890 42.925315 1.130387 55.103166 -0.005679 -2.314784 7.878799 -0.170249 0.055639 -0.394672 -0.000000 0.000000 0.000000 0.000000 0.000000 0.000000 0.000000 
2.897580 17.182524 1.053046 161.604832 -79.563894 -151.443288 -9.233033 0.020287 2.971165 -10.522301 -2.787648 -37.524116 -1.311251 0.624164 31.824085 2.553724 13.286554 -8.751619 0.076200 -0.000000 -10.295500 9.252660 -2.735999 2.253024 12.588138 1.676108 -0.594413 2.412404 0.910182 6.481481 -2.033196 -5.636569 -16.647226 -178.973300 -0.000000 -2.225000 -6.644335 1.099415 -6.723061 -2.022823 1.527437 -4.907332 -5.058539 1.377450 -2.383169 5.835879 -0.634557 -5.795240 -2.580543 -0.228368 0.517265 0.000000 0.000000 0.000000 -5.764355 7.327985 4.064345 -56.505932 20.658258 -10.365317 -5.049094 -3.270843 -0.044150 8.854094 13.991484 1.094978 -0.121991 0.092768 -0.000000 0.000000 0.000000 0.000000 0.000000 0.000000 0.000000 6.124558 7.673382 -0.420066 74.696668 43.699817 43.557850 1.090890 57.889760 -0.003605 -1.714987 7.636206 -0.122597 0.045588 -0.406295 -0.000000 0.000000 0.000000 0.000000 0.000000 0.000000 0.000000 
2.673477 17.229772 1.001635 160.622623 -79.168052 -150.713838 -9.002268 0.078456 3.041465 -11.156699 -2.490012 -36.386798 -1.646324 0.234591 26.513696 2.318926 12.380775 -7.065231 0.496500 -0.000000 -12.857100 9.579729 -2.905264 2.086500 11.745389 0.558490 1.458603 2.354858 0.995034 4.021601 -1.678361 -4.710929 -14.485878 -179.358800 0.000000 -0.268300 -7.376962 1.334473 -6.641454 -2.141513 1.834111 -4.901911 -4.847020 1.688925 -2.374666 5.323446 -0.456571 -5.822627 -2.363768 -0.211699 0.510258 0.000000 0.000000 0.000000 -5.979450 8.229366 3.946567 -54.643285 22.017521 -7.600676 -5.370728 -2.146401 -0.041880 6.464315 13.151948 0.757130 -0.144069 0.074749 -0.000000 0.000000 0.000000 0.000000 0.000000 0.000000 0.000000 4.685162 7.936091 -0.420580 72.953165 46.209164 43.699157 1.038550 60.636501 -0.001729 -1.163385 7.460426 -0.081355 0.033921 -0.417724 -0.000000 0.000000 0.000000 0.000000 0.000000 0.000000 0.000000 
